<svg xmlns="http://www.w3.org/2000/svg" xmlns:xlink="http://www.w3.org/1999/xlink" width="541.693" height="381.342" viewBox="0 0 541.693 381.342">
  <defs>
    <linearGradient id="linear-gradient" x1="0.627" y1="0.5" x2="1.626" y2="0.5" gradientUnits="objectBoundingBox">
      <stop offset="0" stop-color="gray" stop-opacity="0.251"/>
      <stop offset="0.54" stop-color="gray" stop-opacity="0.122"/>
      <stop offset="1" stop-color="gray" stop-opacity="0.102"/>
    </linearGradient>
  </defs>
  <g id="IllustrationCONSTRUCTION" transform="translate(-538.249 -195)">
    <ellipse id="Ellipse_42" data-name="Ellipse 42" cx="83.965" cy="13.994" rx="83.965" ry="13.994" transform="translate(912.011 548.354)" fill="#e7d6d6"/>
    <path id="Path_373" data-name="Path 373" d="M0,0H479.3V258.893H0Z" transform="translate(538.249 215.991)" fill="#464c4a"/>
    <path id="Path_372" data-name="Path 372" d="M0,0H479.3V23.907H0Z" transform="translate(538.249 195)" fill="#464c4a"/>
    <circle id="Ellipse_44" data-name="Ellipse 44" cx="4.082" cy="4.082" r="4.082" transform="translate(545.829 201.414)" fill="#ff5757"/>
    <circle id="Ellipse_45" data-name="Ellipse 45" cx="4.082" cy="4.082" r="4.082" transform="translate(557.491 201.414)" fill="#dfff00"/>
    <circle id="Ellipse_46" data-name="Ellipse 46" cx="4.082" cy="4.082" r="4.082" transform="translate(569.153 201.414)" fill="lime"/>
    <rect id="Rectangle_94" data-name="Rectangle 94" width="479.302" height="2.915" transform="translate(538.249 215.991)" opacity="0.1"/>
    <rect id="Rectangle_95" data-name="Rectangle 95" width="94.461" height="100.875" transform="translate(565.946 257.099)" fill="#ff5757" opacity="0.3"/>
    <path id="Path_113" data-name="Path 113" d="M164.405,633.173c0,17.729-10.54,23.919-23.541,23.919s-23.541-6.19-23.541-23.919,23.541-40.283,23.541-40.283S164.405,615.445,164.405,633.173Z" transform="translate(782.237 -110.728)" fill="#ff5757"/>
    <path id="Path_114" data-name="Path 114" d="M38.486,549.383l.241-14.838,10.034-18.356-10,16.028.108-6.672,6.915-13.28L38.9,523.78h0l.195-12,7.4-10.573-7.374,8.686.122-22-.765,29.127.063-1.2-7.528-11.524,7.408,13.83-.7,13.4-.021-.356-8.68-12.127,8.653,13.383-.088,1.676-.015.025.007.138-1.78,34h2.378l.285-17.561L47.1,537.352Z" transform="translate(883.758 -5.729)" fill="#3f3d56"/>
    <rect id="Rectangle_96" data-name="Rectangle 96" width="94.461" height="100.875" transform="translate(572.36 250.102)" fill="#ff5757"/>
    <rect id="Rectangle_97" data-name="Rectangle 97" width="72.62" height="77.551" transform="translate(912.303 255.481)" fill="#ff5757" opacity="0.3"/>
    <rect id="Rectangle_98" data-name="Rectangle 98" width="72.62" height="77.551" transform="translate(917.233 250.102)" fill="#ff5757"/>
    <rect id="Rectangle_99" data-name="Rectangle 99" width="72.62" height="77.551" transform="translate(912.303 363.222)" fill="#ff5757" opacity="0.3"/>
    <rect id="Rectangle_100" data-name="Rectangle 100" width="72.62" height="77.551" transform="translate(917.233 357.842)" fill="#ff5757"/>
    <rect id="Rectangle_101" data-name="Rectangle 101" width="180.175" height="6.997" transform="translate(700.057 250.102)" fill="#ff5757"/>
    <rect id="Rectangle_102" data-name="Rectangle 102" width="180.175" height="6.997" transform="translate(700.057 270.51)" fill="#ff5757"/>
    <rect id="Rectangle_103" data-name="Rectangle 103" width="180.175" height="6.997" transform="translate(700.057 290.918)" fill="#ff5757"/>
    <rect id="Rectangle_104" data-name="Rectangle 104" width="180.175" height="6.997" transform="translate(700.057 311.327)" fill="#ff5757"/>
    <rect id="Rectangle_105" data-name="Rectangle 105" width="180.175" height="6.997" transform="translate(700.057 331.735)" fill="#ff5757"/>
    <rect id="Rectangle_106" data-name="Rectangle 106" width="180.175" height="6.997" transform="translate(700.057 352.144)" fill="#ff5757"/>
    <rect id="Rectangle_107" data-name="Rectangle 107" width="180.175" height="6.997" transform="translate(700.057 372.552)" fill="#ff5757"/>
    <rect id="Rectangle_108" data-name="Rectangle 108" width="180.175" height="6.997" transform="translate(700.057 392.96)" fill="#ff5757"/>
    <rect id="Rectangle_109" data-name="Rectangle 109" width="180.175" height="6.997" transform="translate(700.057 413.368)" fill="#ff5757"/>
    <rect id="Rectangle_110" data-name="Rectangle 110" width="180.175" height="6.997" transform="translate(700.057 433.776)" fill="#ff5757"/>
    <path id="Path_311" data-name="Path 311" d="M892.744,395.057a5.248,5.248,0,0,0,1.166,2.781,10.091,10.091,0,0,0,3.248,1.965,12.828,12.828,0,0,1,6.274,7.213c1.942,5.668,2.192,11.662,4.665,17.131s5.376,10.723,7.51,16.327c1.213,3.178,2.181,6.484,3.959,9.376a14.542,14.542,0,0,0,3.248,3.738c-.134,2.052-.187,4.082-.175,6.134a2.332,2.332,0,0,1,1.994,1.05,6.072,6.072,0,0,1,.875,2.187c.8,3.306-.187,6.828.531,10.152a51.638,51.638,0,0,1-1.749,27.779c-.8,2.262-1.8,9.749-.95,11.994,3.172-.321,5.983,1.627,8.95,2.916a12.314,12.314,0,0,1-.42,5.248c-1.067,3.073-1.061,6.414-1.044,9.662l.146,24.058a36.282,36.282,0,0,0,.8,9.1c.869,3.329,2.694,6.723,2.636,10.163-.157,7.405,3.341,14.461,3.061,21.808-.052,1.411-.245,2.81-.379,4.21a47.89,47.89,0,0,0,.28,11.19c1.061,7.382,3.866,14.641,3.166,22.064-.047.5-.216,1.166-.688,1.359.583.659,1.2,1.312,1.831,1.936a1.662,1.662,0,0,1-.507.531,5.154,5.154,0,0,1-2.227.583,4.717,4.717,0,0,0-2.548.828,3.668,3.668,0,0,0-1.061,1.948,5.248,5.248,0,0,0,.7,4.362,4.869,4.869,0,0,0,1.977,1.481c2.694,1.166,5.784.321,8.595-.531l11.009-3.335a3.708,3.708,0,0,0,1.79-.933,1.96,1.96,0,0,0,.437-.945c2.432.583,5.1-.134,7.58-.875l11.009-3.341a3.657,3.657,0,0,0,1.79-.933,2.134,2.134,0,0,0,.449-1.749c.082-.035.163-.058.245-.1.84-.379,1.749-1.12,1.545-2.012-.146-.583-.729-.921-.98-1.458a2.105,2.105,0,0,1,.408-2.058c.432-.583,1.015-1.067,1.411-1.679,1.271-1.948.408-4.507-.07-6.787-1.032-4.869-.076-9.953-.729-14.886-.222-1.662-.624-3.294-.945-4.945a101.027,101.027,0,0,1-1.347-11.79c-.42-5.644-1.988-11.207-1.09-16.8a65.257,65.257,0,0,0,.554-9.913,43.151,43.151,0,0,0-.274-6.321c-.227-1.563-.63-3.1-.8-4.665a42.292,42.292,0,0,1-.093-5.3,52.428,52.428,0,0,0-1.084-11.732c-1.166-5.3-3.359-10.373-4.292-15.685.315.07.63.14.933.222.035-4.082-3.539-12.956-4.863-16.828a4.89,4.89,0,0,1-.35-1.487,16.021,16.021,0,0,1,.367-2c.169-1.411-.583-2.752-.787-4.163a9.771,9.771,0,0,1,.216-2.962c.939-5.219,2.105-10.4,3.271-15.569a16.584,16.584,0,0,0,.519-5.755,7.225,7.225,0,0,1,1.749-5.732,6.794,6.794,0,0,0,1.295-1.627,4.126,4.126,0,0,0,.256-1.627,26.137,26.137,0,0,0-1.05-7.085,18.334,18.334,0,0,0,1.7-6.3,102.342,102.342,0,0,0,1.283-14.362,24.338,24.338,0,0,0-1.049-7.58,30.105,30.105,0,0,0-1.994-4.4c-3.067-5.907-6-12.123-9.872-17.534-1.166-1.644-.431-3.913-.35-5.942.088-2.449-.88-4.8-1.831-7.05A11.571,11.571,0,0,0,960.382,386a3.563,3.563,0,0,0-2.566-1.166,3.865,3.865,0,0,0-2.735,1.673,9.02,9.02,0,0,0-1.639,6.746,13.042,13.042,0,0,0,2.968,6.373,14.44,14.44,0,0,0,2.56,2.432q1.446,4.595,2.915,9.184a114.569,114.569,0,0,0,5.248,14.367,11.335,11.335,0,0,1,1.411,4.169,12.247,12.247,0,0,1-1.114,4.606,32.508,32.508,0,0,0-1.877,9.714,3.341,3.341,0,0,0-.49.268c-1.837,1.2-2.414,3.819-4.327,4.892-1.114.624-2.466.583-3.714.869a1.28,1.28,0,0,0-.338.093c-.047-.233-.093-.461-.122-.7a1.879,1.879,0,0,1,0-.449,19.585,19.585,0,0,0,7.248-6.9,6.313,6.313,0,0,0,.857-1.749,6.765,6.765,0,0,0,.087-2.274,36.3,36.3,0,0,0-1.079-7.493,12.46,12.46,0,0,0-3.9-6.35c-.956-.77-2.058-1.347-3.009-2.122-1.854-1.5-3.125-3.714-5.248-4.828a6.315,6.315,0,0,0-7.936,2.052,4.6,4.6,0,0,1-1.166,1.481,11.972,11.972,0,0,0-1.085.583,2.221,2.221,0,0,0-.466,2.3,23.913,23.913,0,0,1,.665,5.009,12.245,12.245,0,0,0-.035,15.843c0,1.085,0,2.169-.041,3.254a3.151,3.151,0,0,1-.041.618,4.2,4.2,0,0,1-1.749-1.166c-.653-.816-.77-2.018-1.569-2.688a4.425,4.425,0,0,0-1.912-.7,11.877,11.877,0,0,1-4.665-2.21c-1.079-.834-2.2-1.9-3.458-2.146a76.706,76.706,0,0,0-7.58-11.569,22.534,22.534,0,0,1-1.982-2.723c-1.254-2.187-1.627-4.758-2.42-7.155-2.216-6.717-7.743-12.105-9.09-19.055-.49-2.519-2.087-4.711-3.184-7.032-.741-1.569-1.557-3.225-3.038-4.122a5.172,5.172,0,0,0-6.128.939A7.364,7.364,0,0,0,892.744,395.057Zm69.231,235.972a5.156,5.156,0,0,1-2.227.583,10.77,10.77,0,0,0-1.166.187c-.146-1.224-.227-2.466-.321-3.673-.309-3.959-.927-7.889-1.539-11.813-.641-4.082-.945-8.548-2.332-12.467-2.233-6.379-4.5-12.95-4.21-19.708.064-1.534.257-3.055.338-4.583.187-3.784-.344-7.65.583-11.329.414-1.673,1.12-3.271,1.388-4.974a23.612,23.612,0,0,0,.058-4.63,61.529,61.529,0,0,1,1.324-15.948,11.256,11.256,0,0,1,1.749,5l2.187,11.86c1.3,7.038,2.449,14.5,5.9,20.764-.484,2.257-.962,4.665-.163,6.822.344.933.91,1.749,1.26,2.694a20.082,20.082,0,0,1,.676,4.956c.379,3.5,1.825,6.939.764,10.315a50.317,50.317,0,0,0-2.117,10.706,26.043,26.043,0,0,1-.35,3.015c-.187.9-.49,1.749-.659,2.671a8.845,8.845,0,0,0,.169,3.889,7.943,7.943,0,0,1,.478,2.187c0,.746-.915,1.283-1.65,1.4.216.28.449.548.688.81A2.555,2.555,0,0,1,961.974,631.029Z" transform="translate(24.075 -84.469)" fill="url(#linear-gradient)"/>
    <path id="Path_312" data-name="Path 312" d="M969.329,816.409a4.717,4.717,0,0,0-2.548.828,3.592,3.592,0,0,0-1.061,1.936,5.178,5.178,0,0,0,.7,4.327,4.858,4.858,0,0,0,1.977,1.475c2.694,1.166,5.784.315,8.595-.531L988,821.132a3.7,3.7,0,0,0,1.79-.927,2.432,2.432,0,0,0,.047-2.834,5.5,5.5,0,0,0-2.332-1.86c-3.423-1.668-7.283-2.047-11.044-2.117-1.4,0-2.781-.338-3.732.741-.5.583-.408,1.207-1.166,1.7A5.247,5.247,0,0,1,969.329,816.409Z" transform="translate(-6.306 -263.12)" fill="#585395"/>
    <path id="Path_313" data-name="Path 313" d="M1005,806.03a4.764,4.764,0,0,0-2.548.828,3.616,3.616,0,0,0-1.061,1.936,5.2,5.2,0,0,0,.7,4.332,4.9,4.9,0,0,0,1.977,1.469c2.7,1.166,5.784.321,8.595-.525l11.009-3.318a3.7,3.7,0,0,0,1.79-.927,2.425,2.425,0,0,0,.047-2.828,5.523,5.523,0,0,0-2.332-1.86c-3.429-1.668-7.289-2.052-11.05-2.122-1.4,0-2.776-.332-3.732.746-.5.583-.408,1.2-1.166,1.7a5.072,5.072,0,0,1-2.227.572Z" transform="translate(-21.178 -258.794)" fill="#585395"/>
    <path id="Path_314" data-name="Path 314" d="M977.435,601.823a135.622,135.622,0,0,1,19.528-.548,3.886,3.886,0,0,1,1.265.2c1.434.583,1.656,2.461,1.79,3.994.583,6.227,3.3,12.029,4.665,18.128a51.794,51.794,0,0,1,1.085,11.662,41.828,41.828,0,0,0,.093,5.248c.175,1.557.583,3.084.8,4.636a42.563,42.563,0,0,1,.274,6.28,64.421,64.421,0,0,1-.554,9.837c-.9,5.557.671,11.079,1.09,16.7a99.654,99.654,0,0,0,1.324,11.726c.321,1.638.723,3.259.945,4.91.653,4.9-.3,9.953.729,14.793.478,2.262,1.341,4.8.07,6.741-.4.583-.98,1.079-1.411,1.668a2.082,2.082,0,0,0-.408,2.047c.251.531.834.88.98,1.446.227.892-.705,1.621-1.545,2a16.1,16.1,0,0,1-18.752-4.63c.735-.117,1.633-.647,1.65-1.394a7.87,7.87,0,0,0-.478-2.169,8.746,8.746,0,0,1-.169-3.86c.169-.9.472-1.749.659-2.653a25.772,25.772,0,0,0,.35-3,49.691,49.691,0,0,1,2.117-10.636c1.061-3.353-.385-6.746-.764-10.245a20.128,20.128,0,0,0-.676-4.927c-.35-.921-.916-1.749-1.26-2.671-.8-2.152-.321-4.542.163-6.781-3.446-6.222-4.595-13.639-5.9-20.63l-2.187-11.778a11.58,11.58,0,0,0-1.749-4.974,60.734,60.734,0,0,0-1.324,15.843,23.326,23.326,0,0,1-.058,4.6c-.268,1.691-.974,3.283-1.388,4.939-.9,3.656-.373,7.493-.583,11.254-.082,1.522-.274,3.032-.338,4.554-.286,6.717,1.977,13.248,4.21,19.586,1.37,3.889,1.673,8.309,2.332,12.379.583,3.9,1.23,7.8,1.539,11.738.286,3.615.414,7.528,2.665,10.367a19.1,19.1,0,0,1-6.589,3.155,12.163,12.163,0,0,1-8.117-1.574,25.534,25.534,0,0,1-6.414-5.452c.472-.163.641-.851.688-1.347.7-7.382-2.1-14.577-3.166-21.924a47.232,47.232,0,0,1-.28-11.114c.134-1.394.327-2.787.379-4.187.28-7.294-3.236-14.321-3.108-21.621.058-3.423-1.749-6.793-2.635-10.1a36.545,36.545,0,0,1-.8-9.038l-.146-23.907c0-3.23,0-6.542,1.044-9.592,1.283-3.673-.187-7.889-.408-11.773A48.525,48.525,0,0,0,977.435,601.823Z" transform="translate(-3.183 -174.063)" fill="#2f2e41"/>
    <path id="Path_315" data-name="Path 315" d="M929.39,446.523a76.181,76.181,0,0,0-8.927-14.093,22.343,22.343,0,0,1-1.983-2.706c-1.254-2.175-1.627-4.729-2.42-7.108-2.216-6.671-7.743-12.029-9.09-18.927-.49-2.507-2.087-4.665-3.184-7-.741-1.557-1.557-3.2-3.038-4.082a5.179,5.179,0,0,0-6.128.933,7.283,7.283,0,0,0-1.878,6.152,5.208,5.208,0,0,0,1.166,2.764,10.167,10.167,0,0,0,3.248,1.953,12.758,12.758,0,0,1,6.274,7.166c1.942,5.627,2.192,11.586,4.665,17.02s5.376,10.647,7.51,16.2c1.213,3.155,2.181,6.414,3.959,9.329s4.554,5.359,7.907,5.8a19.506,19.506,0,0,1,.95-6.227C929.151,451.4,930.445,448.7,929.39,446.523Z" transform="translate(24.076 -87.451)" fill="#ffcd94"/>
    <path id="Path_316" data-name="Path 316" d="M1008.844,449.137a32.219,32.219,0,0,1,1.9-12.117,12.558,12.558,0,0,0,1.114-4.577,11.225,11.225,0,0,0-1.411-4.146,106.336,106.336,0,0,1-5.248-14.268l-2.915-9.125a14.173,14.173,0,0,1-2.56-2.42,12.886,12.886,0,0,1-2.968-6.332,8.892,8.892,0,0,1,1.638-6.694,3.878,3.878,0,0,1,2.735-1.668,3.58,3.58,0,0,1,2.566,1.166,11.492,11.492,0,0,1,2.192,3.743c.95,2.239,1.918,4.571,1.831,7-.082,2.017-.834,4.268.35,5.907,3.872,5.376,6.8,11.551,9.872,17.423a29.478,29.478,0,0,1,1.994,4.367,24.018,24.018,0,0,1,1.05,7.545,104.707,104.707,0,0,1-1.283,14.268c-.414,2.968-.956,6.2-3.2,8.163A46.223,46.223,0,0,0,1008.844,449.137Z" transform="translate(-19.279 -85.704)" fill="#ffcd94"/>
    <circle id="Ellipse_111" data-name="Ellipse 111" cx="12.099" cy="12.099" r="12.099" transform="translate(962.632 341.509)" fill="#ffcd94"/>
    <path id="Path_317" data-name="Path 317" d="M986.262,492.471a16.183,16.183,0,0,0,2.606,6.035c.688,1.166,1.569,2.408,2.916,2.536a58.766,58.766,0,0,1-10.991,4.42,12.431,12.431,0,0,1-4.012.647,9.813,9.813,0,0,1-3.341-.857A16.612,16.612,0,0,1,964,494.22a21.927,21.927,0,0,0,4.5-.344,3.306,3.306,0,0,0,2.2-1.085,3.5,3.5,0,0,0,.455-1.948c.058-2.018.064-4.041,0-6.058a23.907,23.907,0,0,1,8.793,1.085c1.166.379,2.333.834,3.5,1.131.735.187,2.758,0,3.3.426C987.639,488.027,986.058,490.984,986.262,492.471Z" transform="translate(-5.672 -126.122)" fill="#ffcd94"/>
    <path id="Path_318" data-name="Path 318" d="M972.589,498.214a7.615,7.615,0,0,1,5.8-6.77c1.248-.28,2.6-.245,3.714-.863,1.913-1.067,2.49-3.668,4.327-4.863s4.443-.531,6.041.98a12.972,12.972,0,0,1,3.061,5.767A29.192,29.192,0,0,1,997.1,501.3a4.082,4.082,0,0,1-.256,1.615,6.742,6.742,0,0,1-1.294,1.615,7.149,7.149,0,0,0-1.749,5.7,16.329,16.329,0,0,1-.519,5.714c-1.166,5.143-2.332,10.28-3.271,15.469a9.606,9.606,0,0,0-.216,2.915c.181,1.405.956,2.735.787,4.14a15.676,15.676,0,0,0-.367,1.988,4.821,4.821,0,0,0,.35,1.475c1.324,3.843,4.9,12.647,4.863,16.717-6.21-1.592-15.365-1.948-21.779-1.977a48.44,48.44,0,0,0-5.283.233c-4.216.455-8.531,1.685-12.618.548-3.8-1.055-7.155-4.082-11.079-3.7-.851-2.227.152-9.662.95-11.913a50.987,50.987,0,0,0,1.749-27.6c-.717-3.3.268-6.8-.531-10.082a6.012,6.012,0,0,0-.875-2.175,2.332,2.332,0,0,0-1.994-1.044,74.274,74.274,0,0,1,1.458-15.7c.385-1.837,1.166-4.006,3.05-4.321,1.668-.286,3.067,1.125,4.408,2.157a11.843,11.843,0,0,0,4.665,2.192,4.426,4.426,0,0,1,1.913.7c.8.665.915,1.86,1.568,2.671,1.166,1.452,3.773,1.329,4.6,3a11.442,11.442,0,0,1,.437,1.528,5.608,5.608,0,0,0,1.924,2.484,10.822,10.822,0,0,0,4.6,2.565Z" transform="translate(2.684 -124.512)" fill="#4e4891"/>
    <path id="Path_319" data-name="Path 319" d="M975.188,449.088a2.211,2.211,0,0,1,.466-2.286c.321-.251.741-.344,1.085-.583a4.665,4.665,0,0,0,1.166-1.475,6.332,6.332,0,0,1,7.924-2.012c2.1,1.1,3.376,3.306,5.248,4.793.95.77,2.052,1.341,3.009,2.111a12.368,12.368,0,0,1,3.9,6.309,35.8,35.8,0,0,1,1.079,7.44,6.7,6.7,0,0,1-.087,2.262,6.333,6.333,0,0,1-.857,1.749,19.482,19.482,0,0,1-7.638,7.067,11.806,11.806,0,0,1-10.181.175,1.749,1.749,0,0,1-.781-.624,2.245,2.245,0,0,1-.122-1.347,9.218,9.218,0,0,0-1.015-5.16c-.583-1.166-1.458-2.169-1.924-3.376a11.761,11.761,0,0,1-.548-4.187C975.858,456.278,976.109,452.622,975.188,449.088Z" transform="translate(-10.288 -108.343)" fill="#2d293d"/>
  </g>
</svg>
