<svg id="illustrration" xmlns="http://www.w3.org/2000/svg" width="533.821" height="459.511" viewBox="0 0 533.821 459.511">
  <g id="Iluustration" transform="translate(0 0)">
    <g id="undraw_landing_page_q6hh" transform="translate(139.833)">
      <ellipse id="Ellipse_2" data-name="Ellipse 2" cx="78.028" cy="5.133" rx="78.028" ry="5.133" transform="translate(82.904 268.22)" fill="#f2f2f2"/>
      <ellipse id="Ellipse_3" data-name="Ellipse 3" cx="36.447" cy="2.398" rx="36.447" ry="2.398" transform="translate(0.219 288.992)" fill="#f2f2f2"/>
      <ellipse id="Ellipse_4" data-name="Ellipse 4" cx="78.028" cy="5.133" rx="78.028" ry="5.133" transform="translate(237.933 256.413)" fill="#f2f2f2"/>
      <path id="Path_53" data-name="Path 53" d="M0,0H374.738V253.077H0Z" fill="#e2e2e2"/>
      <line id="Line_6" data-name="Line 6" x2="374.738" transform="translate(0 18.511)" fill="none" stroke="#2f2e41" stroke-miterlimit="10" stroke-width="2"/>
      <ellipse id="Ellipse_5" data-name="Ellipse 5" cx="4.62" cy="4.62" rx="4.62" ry="4.62" transform="translate(6.93 4.62)" fill="#ff5757"/>
      <ellipse id="Ellipse_6" data-name="Ellipse 6" cx="4.62" cy="4.62" rx="4.62" ry="4.62" transform="translate(20.79 4.877)" fill="#d6d627"/>
      <ellipse id="Ellipse_7" data-name="Ellipse 7" cx="4.62" cy="4.62" rx="4.62" ry="4.62" transform="translate(34.65 5.133)" fill="#00ff2b"/>
      <rect id="Rectangle_15" data-name="Rectangle 15" width="316.217" height="61.601" transform="translate(23.357 35.677)" fill="#464c4a" opacity="0.3"/>
      <line id="Line_7" data-name="Line 7" y1="61.601" x2="316.217" transform="translate(23.357 35.677)" fill="none" stroke="#464c4a" stroke-miterlimit="10" stroke-width="2" opacity="0.3"/>
      <line id="Line_8" data-name="Line 8" x1="316.217" y1="61.601" transform="translate(23.357 35.677)" fill="none" stroke="#464c4a" stroke-miterlimit="10" stroke-width="2" opacity="0.3"/>
      <rect id="Rectangle_16" data-name="Rectangle 16" width="75.461" height="99.075" transform="translate(23.357 136.292)" fill="#464c4a" opacity="0.3"/>
      <rect id="Rectangle_17" data-name="Rectangle 17" width="75.461" height="99.075" transform="translate(264.113 136.292)" fill="#464c4a" opacity="0.3"/>
      <rect id="Rectangle_18" data-name="Rectangle 18" width="75.461" height="99.075" transform="translate(143.735 136.292)" fill="#464c4a" opacity="0.3"/>
      <line id="Line_9" data-name="Line 9" x2="75.461" y2="99.075" transform="translate(23.357 136.292)" fill="none" stroke="#464c4a" stroke-miterlimit="10" stroke-width="2" opacity="0.3"/>
      <line id="Line_10" data-name="Line 10" x1="75.461" y2="99.075" transform="translate(23.357 136.292)" fill="none" stroke="#464c4a" stroke-miterlimit="10" stroke-width="2" opacity="0.3"/>
      <line id="Line_11" data-name="Line 11" x2="75.461" y2="99.075" transform="translate(143.992 136.292)" fill="none" stroke="#464c4a" stroke-miterlimit="10" stroke-width="2" opacity="0.3"/>
      <line id="Line_12" data-name="Line 12" x1="75.461" y2="99.075" transform="translate(143.992 136.292)" fill="none" stroke="#464c4a" stroke-miterlimit="10" stroke-width="2" opacity="0.3"/>
      <line id="Line_13" data-name="Line 13" x2="75.461" y2="99.075" transform="translate(264.113 136.292)" fill="none" stroke="#464c4a" stroke-miterlimit="10" stroke-width="2" opacity="0.3"/>
      <line id="Line_14" data-name="Line 14" x1="75.461" y2="99.075" transform="translate(264.113 136.292)" fill="none" stroke="#464c4a" stroke-miterlimit="10" stroke-width="2" opacity="0.3"/>
      <rect id="Rectangle_19" data-name="Rectangle 19" width="316.217" height="61.601" transform="translate(65.451 35.677)" fill="#464c4a"/>
      <rect id="Rectangle_20" data-name="Rectangle 20" width="75.461" height="99.075" transform="translate(278.487 159.905)" fill="#464c4a"/>
      <rect id="Rectangle_21" data-name="Rectangle 21" width="53.387" height="6.16" transform="translate(289.524 172.996)" fill="#ff5757"/>
      <rect id="Rectangle_22" data-name="Rectangle 22" width="53.387" height="6.16" transform="translate(289.524 186.342)" fill="#ff5757"/>
      <rect id="Rectangle_23" data-name="Rectangle 23" width="53.387" height="6.16" transform="translate(289.524 199.689)" fill="#ff5757"/>
      <rect id="Rectangle_24" data-name="Rectangle 24" width="53.387" height="6.16" transform="translate(289.524 213.036)" fill="#ff5757"/>
      <rect id="Rectangle_25" data-name="Rectangle 25" width="53.387" height="6.16" transform="translate(289.524 226.383)" fill="#ff5757"/>
      <rect id="Rectangle_26" data-name="Rectangle 26" width="53.387" height="6.16" transform="translate(289.524 239.73)" fill="#ff5757"/>
      <rect id="Rectangle_27" data-name="Rectangle 27" width="75.461" height="99.075" transform="translate(41.837 149.639)" fill="#464c4a"/>
      <rect id="Rectangle_28" data-name="Rectangle 28" width="53.387" height="6.16" transform="translate(52.874 182.749)" fill="#ff5757"/>
      <rect id="Rectangle_29" data-name="Rectangle 29" width="53.387" height="6.16" transform="translate(52.874 196.096)" fill="#ff5757"/>
      <rect id="Rectangle_30" data-name="Rectangle 30" width="53.387" height="6.16" transform="translate(52.874 209.443)" fill="#ff5757"/>
      <path id="Path_4" data-name="Path 4" d="M708.676,365.985c0,11.534-6.856,15.561-15.315,15.561q-.294,0-.587-.007c-.392-.008-.78-.027-1.164-.053-7.634-.54-13.564-4.775-13.564-15.5,0-11.1,14.186-25.109,15.251-26.145l0,0,.062-.06S708.676,354.451,708.676,365.985Z" transform="translate(-469.801 -294.185)" fill="#ff5757"/>
      <path id="Path_5" data-name="Path 5" d="M700.957,379.782l5.6-7.827-5.616,8.686-.015.9c-.392-.008-.78-.027-1.164-.053l.6-11.54,0-.09.01-.017.057-1.09-5.629-8.708,5.647,7.89.013.231.456-8.719-4.819-9,4.878,7.468.475-18.076,0-.062v.06l-.079,14.254,4.8-5.651-4.818,6.879-.127,7.806,4.48-7.492-4.5,8.64-.071,4.34,6.5-10.427-6.528,11.942Z" transform="translate(-477.955 -294.185)" fill="#464c4a"/>
      <rect id="Rectangle_31" data-name="Rectangle 31" width="75.461" height="99.075" transform="translate(127.052 174.279)" fill="#464c4a"/>
      <rect id="Rectangle_32" data-name="Rectangle 32" width="33.88" height="33.88" transform="translate(147.842 189.936)" fill="#ff5757"/>
      <rect id="Rectangle_33" data-name="Rectangle 33" width="59.547" height="4.107" transform="translate(135.008 231.003)" fill="#ff5757"/>
      <rect id="Rectangle_34" data-name="Rectangle 34" width="59.547" height="4.107" transform="translate(135.008 242.296)" fill="#ff5757"/>
      <rect id="Rectangle_35" data-name="Rectangle 35" width="59.547" height="4.107" transform="translate(135.008 253.59)" fill="#ff5757"/>
      <path id="Path_19" data-name="Path 19" d="M332.909,783.771c0,7.485-4.449,10.1-9.939,10.1q-.191,0-.381,0c-.254-.005-.506-.018-.755-.035-4.954-.351-8.8-3.1-8.8-10.06,0-7.2,9.206-16.294,9.9-16.967h0l.04-.039S332.909,776.286,332.909,783.771Z" transform="translate(-284.501 -502.939)" fill="#ff5757"/>
      <path id="Path_20" data-name="Path 20" d="M327.9,792.725l3.635-5.079-3.644,5.637-.01.583c-.254-.005-.506-.018-.755-.035l.392-7.489,0-.058.007-.011.037-.707-3.653-5.651,3.665,5.12.008.15.3-5.658-3.128-5.839,3.166,4.846.308-11.73v0l-.051,9.25,3.114-3.667-3.126,4.464-.082,5.066,2.907-4.862-2.919,5.607-.046,2.816,4.22-6.767L328,786.461Z" transform="translate(-289.793 -502.94)" fill="#3f3d56"/>
    </g>
    <g id="coder" transform="translate(0 178.25)">
      <path id="Path_23" data-name="Path 23" d="M193.087,656.626H214.68L267.892,635.8s37.788-15.424,34.7,13.881-8.483,68.635-8.483,68.635-16.966-7.712-26.22-5.4-3.085-47.042-3.085-47.042-75.576,36.246-82.517,31.618-8.483-37.017-8.483-37.017Z" transform="translate(-108.257 -462.412)" fill="#2f2e41"/>
      <path id="Path_24" data-name="Path 24" d="M193.087,656.626H214.68L267.892,635.8s37.788-15.424,34.7,13.881-8.483,68.635-8.483,68.635-16.966-7.712-26.22-5.4-3.085-47.042-3.085-47.042-75.576,36.246-82.517,31.618-8.483-37.017-8.483-37.017Z" transform="translate(-108.257 -462.412)" opacity="0.1"/>
      <path id="Path_25" data-name="Path 25" d="M251.069,558.82,277.2,596.366l60.923,50.9s56.3,13.11,48.584,22.364-54.754-9.254-54.754-9.254-70.178-50.9-72.491-54.754-27.762-40.1-27.762-40.1Z" transform="translate(-132.219 -432.228)" fill="#ffcd94"/>
      <path id="Path_26" data-name="Path 26" d="M251.069,558.82,277.2,596.366l60.923,50.9s56.3,13.11,48.584,22.364-54.754-9.254-54.754-9.254-70.178-50.9-72.491-54.754-27.762-40.1-27.762-40.1Z" transform="translate(-132.219 -432.228)" fill="#9a7a56" opacity="0.1"/>
      <path id="Path_27" data-name="Path 27" d="M220.31,507.092l16.966,33.161s-3.856,16.195-10.025,17.737-32.39-20.051-32.39-20.051Z" transform="translate(-116.971 -410.818)" fill="#585395"/>
      <path id="Path_28" data-name="Path 28" d="M220.31,507.092l16.966,33.161s-3.856,16.195-10.025,17.737-32.39-20.051-32.39-20.051Z" transform="translate(-116.971 -410.818)" opacity="0.1"/>
      <path id="Path_29" data-name="Path 29" d="M574.886,644.2l5.012,20.673a1.291,1.291,0,0,1-.025.7l-22.734,71.043a1.291,1.291,0,0,1-2.513-.248l-3.145-27.676a1.291,1.291,0,0,1,.055-.546L572.4,644.108a1.291,1.291,0,0,1,2.482.1Z" transform="translate(-264.569 -467.159)" fill="#2f2e41"/>
      <path id="Path_30" data-name="Path 30" d="M512.147,575.493l4.627,17.737-20.051,64.779L492.1,637.959Z" transform="translate(-203.674 -396.703)" fill="#f2f2f2"/>
      <path id="Path_31" data-name="Path 31" d="M415.822,787.3c.771,2.313,80.2-.771,80.974-1.542a16.741,16.741,0,0,0,1.7-3.085c.725-1.542,1.388-3.085,1.388-3.085L496.8,754.616l-78.661-2.792s-1.967,21.161-2.368,30.847A23.155,23.155,0,0,0,415.822,787.3Z" transform="translate(-208.374 -512.111)" fill="#2f2e41"/>
      <path id="Path_32" data-name="Path 32" d="M451.574,689.965l1.542,21.593h-34.7V689.965Z" transform="translate(-173.177 -444.082)" opacity="0.1"/>
      <path id="Path_33" data-name="Path 33" d="M384.518,701.777l.207-.041-.978,9.3h-19.28v-9.255Z" transform="translate(-150.849 -448.954)" opacity="0.1"/>
      <path id="Path_34" data-name="Path 34" d="M415.822,809.082c.771,2.313,80.2-.771,80.974-1.542a16.737,16.737,0,0,0,1.7-3.085H415.768A23.145,23.145,0,0,0,415.822,809.082Z" transform="translate(-208.374 -533.894)" opacity="0.1"/>
      <ellipse id="Ellipse_12" data-name="Ellipse 12" cx="34.703" cy="34.703" rx="34.703" ry="34.703" transform="translate(80.203 16.071)" fill="#ffcd94"/>
      <path id="Path_35" data-name="Path 35" d="M216.766,460.984s-11.568,20.051-13.881,30.847-34.7-21.593-34.7-21.593l-4.242-11.182s30.462-14.267,28.148-25.835S216.766,460.984,216.766,460.984Z" transform="translate(-104.173 -379.363)" fill="#ffcd94"/>
      <path id="Path_36" data-name="Path 36" d="M238.456,584.722l31.618,41.644,75.576,56.3s54.754,11.568,42.415,20.051S340.252,695,340.252,695,263.9,654.128,247.71,637.162s-46.271-45.5-46.271-45.5Z" transform="translate(-119.694 -442.949)" fill="#ffcd94"/>
      <path id="Path_37" data-name="Path 37" d="M143.761,691.853l9.254,14.652,55.23-17.376a43.424,43.424,0,0,1,36.155,4.362c9.64,6.073,15.809,15.713,1.928,29.98-27.763,28.534-46.271,13.11-46.271,13.11s-93.313,43.958-108.737,22.364-16.195-32.39-16.195-32.39S134.507,689.539,143.761,691.853Z" transform="translate(-67.414 -485.3)" fill="#2f2e41"/>
      <path id="Path_38" data-name="Path 38" d="M332.412,777.186s24.678,16.195-4.627,23.907-50.9-3.085-50.9-3.085-25.449,0-25.449-13.11,8.483-14.652,8.483-14.652l26.22,3.856S317.76,765.618,332.412,777.186Z" transform="translate(-140.388 -522.608)" fill="#585395"/>
      <path id="Path_39" data-name="Path 39" d="M254.066,384.878c2.362,1.053,4.7,2.3,7.272,2.6s5.492-.591,6.707-2.874a9.021,9.021,0,0,0,.762-4.08c.093-4.235-.213-8.813-2.9-12.09-1.708-2.086-4.2-3.4-5.969-5.436a25.685,25.685,0,0,1-3.017-4.93c-3.438-6.457-8.529-12.663-15.6-14.525a33.837,33.837,0,0,0-9.108-.7L214.4,343.1a31.019,31.019,0,0,0-8.571.922c-5.734,1.734-9.91,6.556-13.734,11.168a69.839,69.839,0,0,0-7.876,10.871,38.144,38.144,0,0,0-4.521,18.689,17.485,17.485,0,0,0,.64,4.945,27.442,27.442,0,0,0,1.944,4.269c3.341,6.562,5.325,14.76,1.562,21.09,6.536-2.67,13-6.171,17.315-11.762,1.929-2.5,3.442-5.429,6.012-7.265s6.759-1.995,8.408.7a7.536,7.536,0,0,1,.85,3.53c.12,2.022.117,4.122.974,5.957s2.9,3.316,4.849,2.767c3.358-.946,3.036-6.1,5.622-8.44,1.964-1.778,4.994-1.438,7.517-2.245a11.156,11.156,0,0,0,6.4-6.306c.955-2.143.942-7.75,2.749-8.91C246.81,381.627,251.965,383.941,254.066,384.878Z" transform="translate(-110.692 -342.833)" fill="#2f2e41"/>
      <path id="Path_40" data-name="Path 40" d="M118.98,472.343a9.152,9.152,0,0,1,4.764.012c4.95,1.329,16.048,4.847,18.427,10.2,3.085,6.941,13.881,17.737,13.881,17.737s14.652,14.652,11.568,24.678-14.652,21.593-14.652,21.593,3.085,47.813-12.339,60.152-21.593,3.856-21.593,15.424S71.222,669.954,61.968,647.59c0,0,4.627-41.644,3.085-56.3C63.533,576.852,65.758,486.752,118.98,472.343Z" transform="translate(-61.968 -396.308)" fill="#4e4891"/>
      <path id="Path_41" data-name="Path 41" d="M176.017,504.346s47.042,34.7,38.559,49.356c0,0-28.534,13.881-34.7,13.11s-30.076-27.763-36.246-30.076S134.373,492.778,176.017,504.346Z" transform="translate(-94.272 -408.843)" fill="#585395"/>
    </g>
  </g>
</svg>
