<svg xmlns="http://www.w3.org/2000/svg" width="200" height="133.35" viewBox="0 0 200 133.35">
  <g id="landingpage" transform="translate(0 0)">
    <rect id="Rectangle_46" data-name="Rectangle 46" width="200" height="133.35" fill="#464c4a"/>
    <path id="Path_55" data-name="Path 55" d="M462.6,261.821H413.37a.6.6,0,0,1,0-1.195H462.6a.6.6,0,1,1,0,1.195Z" transform="translate(-362.949 -244.426)" fill="#f2f2f2"/>
    <path id="Path_56" data-name="Path 56" d="M587.6,286.587H510.181a.6.6,0,1,1,0-1.195H587.6a.6.6,0,1,1,0,1.195Z" transform="translate(-434.94 -262.621)" fill="#f2f2f2"/>
    <path id="Path_57" data-name="Path 57" d="M463.5,311.353H414.27a.6.6,0,0,1,0-1.195H463.5a.6.6,0,0,1,0,1.195Z" transform="translate(-365.61 -281.795)" fill="#f2f2f2"/>
    <path id="Path_58" data-name="Path 58" d="M665.674,311.8H616.448a.6.6,0,1,1,0-1.195h49.226a.6.6,0,1,1,0,1.195Z" transform="translate(-513.975 -282.144)" fill="#f2f2f2"/>
    <path id="Path_59" data-name="Path 59" d="M463.946,336.118H414.72a.6.6,0,1,1,0-1.195h49.226a.6.6,0,1,1,0,1.195Z" transform="translate(-365.94 -300.97)" fill="#f2f2f2"/>
    <path id="Path_60" data-name="Path 60" d="M464.4,360.884H415.171a.6.6,0,0,1,0-1.195H464.4a.6.6,0,0,1,0,1.195Z" transform="translate(-366.271 -320.146)" fill="#f2f2f2"/>
    <path id="Path_61" data-name="Path 61" d="M645.857,262.271h-14.1a.6.6,0,1,1,0-1.195h14.1a.6.6,0,0,1,0,1.195Z" transform="translate(-525.272 -243.757)" fill="#f2f2f2"/>
    <path id="Path_62" data-name="Path 62" d="M645.857,336.118h-14.1a.6.6,0,1,1,0-1.195h14.1a.6.6,0,1,1,0,1.195Z" transform="translate(-525.272 -300.97)" fill="#f2f2f2"/>
    <path id="Path_63" data-name="Path 63" d="M645.857,360.434h-14.1a.6.6,0,1,1,0-1.195h14.1a.6.6,0,0,1,0,1.195Z" transform="translate(-525.272 -319.798)" fill="#f2f2f2"/>
    <path id="Path_64" data-name="Path 64" d="M735.014,360.434h-14.1a.6.6,0,1,1,0-1.195h14.1a.6.6,0,0,1,0,1.195Z" transform="translate(-590.713 -319.798)" fill="#f2f2f2"/>
    <path id="Path_65" data-name="Path 65" d="M427.018,286.587h-14.1a.6.6,0,1,1,0-1.195h14.1a.6.6,0,1,1,0,1.195Z" transform="translate(-363.646 -262.621)" fill="#f2f2f2"/>
    <path id="Path_66" data-name="Path 66" d="M462.821,626.553H413.595a.6.6,0,0,1,0-1.195h49.226a.6.6,0,0,1,0,1.195Z" transform="translate(-365.115 -531.85)" fill="#f2f2f2"/>
    <path id="Path_67" data-name="Path 67" d="M461.92,676.084H412.694a.6.6,0,0,1,0-1.195H461.92a.6.6,0,0,1,0,1.195Z" transform="translate(-364.453 -567.97)" fill="#f2f2f2"/>
    <path id="Path_68" data-name="Path 68" d="M462.37,700.85H413.144a.6.6,0,1,1,0-1.195H462.37a.6.6,0,0,1,0,1.195Z" transform="translate(-364.784 -586.165)" fill="#f2f2f2"/>
    <path id="Path_69" data-name="Path 69" d="M638.878,676.534h-14.1a.6.6,0,0,1,0-1.195h14.1a.6.6,0,0,1,0,1.195Z" transform="translate(-520.15 -568.301)" fill="#f2f2f2"/>
    <path id="Path_70" data-name="Path 70" d="M638.878,700.85h-14.1a.6.6,0,0,1,0-1.195h14.1a.6.6,0,0,1,0,1.195Z" transform="translate(-520.15 -586.165)" fill="#f2f2f2"/>
    <path id="Path_71" data-name="Path 71" d="M728.034,676.534h-14.1a.6.6,0,0,1,0-1.195h14.1a.6.6,0,0,1,0,1.195Z" transform="translate(-585.59 -568.301)" fill="#f2f2f2"/>
    <path id="Path_72" data-name="Path 72" d="M587.83,651.318H510.406a.6.6,0,0,1,0-1.195H587.83a.6.6,0,0,1,0,1.195Z" transform="translate(-434.105 -550.025)" fill="#f2f2f2"/>
    <path id="Path_73" data-name="Path 73" d="M427.243,651.318h-14.1a.6.6,0,1,1,0-1.195h14.1a.6.6,0,1,1,0,1.195Z" transform="translate(-363.812 -550.025)" fill="#f2f2f2"/>
    <path id="Path_74" data-name="Path 74" d="M587.83,726.066H510.406a.6.6,0,0,1,0-1.195H587.83a.6.6,0,0,1,0,1.195Z" transform="translate(-436.105 -604.69)" fill="#f2f2f2"/>
    <path id="Path_75" data-name="Path 75" d="M427.243,726.066h-14.1a.6.6,0,1,1,0-1.195h14.1a.6.6,0,1,1,0,1.195Z" transform="translate(-364.812 -604.69)" fill="#f2f2f2"/>
    <path id="Path_76" data-name="Path 76" d="M462.125,401.13l-15.11,14.922,15.11,14.922,3.4-3.4L454.1,416.146l11.522-11.522Z" transform="translate(-373.286 -349.159)" fill="#ff5757"/>
    <path id="Path_77" data-name="Path 77" d="M612.161,401.13l15.11,14.922-15.11,14.922-3.4-3.4,11.427-11.427-11.522-11.522Z" transform="translate(-500.946 -349.159)" fill="#ff5757"/>
    <circle id="Ellipse_21" data-name="Ellipse 21" cx="2.388" cy="2.388" r="2.388" transform="translate(2.919 1.592)" fill="#ff5757"/>
    <circle id="Ellipse_22" data-name="Ellipse 22" cx="2.388" cy="2.388" r="2.388" transform="translate(9.287 1.592)" fill="#fc0"/>
    <circle id="Ellipse_23" data-name="Ellipse 23" cx="2.388" cy="2.388" r="2.388" transform="translate(15.655 1.592)" fill="#00f900"/>
    <rect id="Rectangle_47" data-name="Rectangle 47" width="200" height="0.796" transform="translate(0 7.96)" fill="#fff" opacity="0.1"/>
  </g>
</svg>
