<svg xmlns="http://www.w3.org/2000/svg" width="200" height="133.735" viewBox="0 0 200 133.735">
  <g id="PSDtoHTML" transform="translate(0 0)">
    <rect id="Rectangle_50" data-name="Rectangle 50" width="200" height="133" fill="#fff"/>
    <circle id="Ellipse_13" data-name="Ellipse 13" cx="19.714" cy="19.714" r="19.714" transform="translate(9.871 52.691)" fill="#f2f2f2"/>
    <path id="Path_42" data-name="Path 42" d="M843.126,172.324H732.649V149.207H843.126Zm-109.99-.487h109.5V149.694h-109.5Z" transform="translate(-655.602 -125.523)" fill="#3f3d56"/>
    <rect id="Rectangle_36" data-name="Rectangle 36" width="109.99" height="22.631" transform="translate(69.504 28.308)" fill="#ff5757"/>
    <circle id="Ellipse_14" data-name="Ellipse 14" cx="1.703" cy="1.703" r="1.703" transform="translate(3.164 3.305)" fill="#ff5757"/>
    <circle id="Ellipse_15" data-name="Ellipse 15" cx="1.703" cy="1.703" r="1.703" transform="translate(9.003 3.305)" fill="#f7ff00"/>
    <circle id="Ellipse_16" data-name="Ellipse 16" cx="1.703" cy="1.703" r="1.703" transform="translate(14.844 3.305)" fill="#00ff5d"/>
    <path id="Path_43" data-name="Path 43" d="M662.486,205.736h-200V72.386h200Zm-199.525-.487h199.05V72.873H462.962Z" transform="translate(-462.487 -72.001)" fill="#3f3d56"/>
    <rect id="Rectangle_37" data-name="Rectangle 37" width="199.513" height="0.487" transform="translate(0.243 7.766)" fill="#3f3d56"/>
    <path id="Path_44" data-name="Path 44" d="M475.666,82.7a1.947,1.947,0,1,1,1.947-1.947,1.947,1.947,0,0,1-1.947,1.947Zm0-3.407a1.46,1.46,0,1,0,1.46,1.46,1.46,1.46,0,0,0-1.46-1.46Z" transform="translate(-470.313 -76.473)" fill="#3f3d56"/>
    <path id="Path_45" data-name="Path 45" d="M494.921,82.7a1.947,1.947,0,1,1,1.947-1.947,1.947,1.947,0,0,1-1.947,1.947Zm0-3.407a1.46,1.46,0,1,0,1.46,1.46,1.46,1.46,0,0,0-1.46-1.46Z" transform="translate(-483.728 -76.473)" fill="#3f3d56"/>
    <path id="Path_46" data-name="Path 46" d="M514.177,82.7a1.947,1.947,0,1,1,1.947-1.947,1.947,1.947,0,0,1-1.947,1.947Zm0-3.407a1.46,1.46,0,1,0,1.46,1.46,1.46,1.46,0,0,0-1.46-1.46Z" transform="translate(-497.143 -76.473)" fill="#3f3d56"/>
    <rect id="Rectangle_38" data-name="Rectangle 38" width="0.487" height="125.671" transform="translate(62.639 8.01)" fill="#3f3d56"/>
    <rect id="Rectangle_39" data-name="Rectangle 39" width="35.771" height="4.867" transform="translate(84.887 69.797)" fill="#f2f2f2"/>
    <rect id="Rectangle_40" data-name="Rectangle 40" width="35.771" height="4.867" transform="translate(138.734 69.797)" fill="#f2f2f2"/>
    <path id="Path_47" data-name="Path 47" d="M792.575,297.773H756.317V292.42h36.258Zm-35.771-.487h35.285v-4.38H756.8Z" transform="translate(-669.784 -225.299)" fill="#3f3d56"/>
    <rect id="Rectangle_41" data-name="Rectangle 41" width="35.771" height="4.867" transform="translate(84.887 107.515)" fill="#f2f2f2"/>
    <path id="Path_48" data-name="Path 48" d="M792.575,422.131H756.317v-5.353h36.258Zm-35.771-.487h35.285v-4.38H756.8Z" transform="translate(-669.784 -311.94)" fill="#3f3d56"/>
    <rect id="Rectangle_42" data-name="Rectangle 42" width="91.982" height="4.867" transform="translate(82.645 88.169)" fill="#f2f2f2"/>
    <path id="Path_49" data-name="Path 49" d="M849.188,359.952h-92.47V354.6h92.469Zm-91.984-.486h91.5v-4.38H757.2Z" transform="translate(-672.371 -268.62)" fill="#3f3d56"/>
    <path id="Path_50" data-name="Path 50" d="M977.907,297.773H941.651V292.42h36.256Zm-35.771-.487H977.42v-4.38H942.138Z" transform="translate(-801.213 -225.299)" fill="#3f3d56"/>
    <path id="Path_51" data-name="Path 51" d="M525.05,265.879a20.018,20.018,0,1,1,20.018-20.018A20.018,20.018,0,0,1,525.05,265.879Zm0-39.429a19.411,19.411,0,1,0,19.411,19.411A19.411,19.411,0,0,0,525.05,226.451Z" transform="translate(-492.128 -178.916)" fill="#3f3d56"/>
  </g>
</svg>
